<svg id="prefix__Layer_1" xmlns="http://www.w3.org/2000/svg" preserveAspectRatio="xMidYMid meet" viewBox="0 0 316.26 98.51"><defs><clipPath id="prefix__clippath"><path fill="none" d="M0 0h316.26v98.51H0z"/></clipPath><style>.prefix__cls-3{fill:#fff}</style></defs><g clip-path="url(#prefix__clippath)"><path class="prefix__cls-3" d="M139.79 50.01c0-7.36-4.51-11.84-11.84-11.84h-8.02a.64.64 0 00-.64.65v22.46c0 .35.29.64.64.64h8.78c6.86 0 11.08-4.48 11.08-11.91m-11.15 9.17h-6.32V40.92h5.7c5.41 0 8.74 3.43 8.74 9.1s-3.07 9.17-8.12 9.17M151.99 62.21c4.39 0 7.42-2.15 7.94-5.59a.644.644 0 00-.64-.73h-1.42c-.3 0-.56.21-.62.5-.47 2.06-2.44 3.36-5.22 3.36-3.5 0-5.81-2.38-5.99-6.17h13.32c.36 0 .64-.29.64-.64v-.69c0-5.31-3-8.45-8.08-8.45-5.34 0-8.77 3.65-8.77 9.35s3.46 9.06 8.84 9.06m0-15.95c3.39 0 5.34 1.88 5.34 5.02v.22h-11.19c.54-3.39 2.67-5.23 5.85-5.23M193.5 47.84c.35 0 .63-.28.64-.63v-.78c0-5.41-4.3-8.63-10.29-8.63-6.75 0-11.95 5.02-11.95 12.45s5.02 12.02 11.77 12.02c4.73 0 7.36-2.06 8.08-4.76h.04c-.06 1.37-.14 2.72-.22 3.71-.03.38.26.7.64.7h1.5c.35 0 .64-.29.64-.64V51.16c0-.36-.29-.65-.64-.65h-10.08c-.35 0-.64.29-.64.65v.95c0 .35.29.64.64.64h7.7v.69c0 3.57-2.92 6.24-7.65 6.24s-8.74-3.65-8.74-9.38 3.9-9.74 8.91-9.74c4.29 0 7.47 2.24 7.47 6.03v.6c0 .36.28.66.64.66h1.52zM202.26 49.25h-.04l.06-4.51c0-.36-.29-.65-.65-.65h-1.59c-.36 0-.64.29-.64.64v16.54c0 .35.29.64.64.64h1.6c.35 0 .64-.29.64-.64v-7.26c0-4.44 2.13-7.61 5.77-7.61 2.92 0 4.15 1.69 4.15 4.98 0 .73-.03 1.37-.07 1.87-.03.37.27.69.64.69h1.34c.33 0 .61-.25.64-.58.06-.7.12-1.66.12-2.59 0-4.3-2.13-6.97-6.14-6.97s-5.67 2.34-6.5 5.45M236.13 53.04c0-5.63-3.5-9.24-9.02-9.24s-9.02 3.61-9.02 9.24 3.5 9.17 9.02 9.17 9.02-3.57 9.02-9.17m-9.02 6.57c-3.75 0-6.14-2.56-6.14-6.57s2.38-6.64 6.14-6.64 6.14 2.6 6.14 6.64-2.38 6.57-6.14 6.57M230.21 41.94c1.07 0 1.94-.87 1.94-1.94s-.87-1.94-1.94-1.94h-.06c-1.07 0-1.94.87-1.94 1.94s.87 1.94 1.94 1.94h.06zM224.07 41.94c1.07 0 1.94-.87 1.94-1.94s-.87-1.94-1.94-1.94h-.06c-1.07 0-1.94.87-1.94 1.94s.87 1.94 1.94 1.94h.06zM243.04 48.89H243l.06-4.15a.64.64 0 00-.64-.65h-1.59c-.36 0-.65.29-.65.64v16.54c0 .35.29.64.65.64h1.6c.35 0 .64-.29.64-.64v-8.13c0-4.26 2.63-6.75 6.71-6.75 3.83 0 5.56 1.95 5.56 4.98v9.9c0 .35.29.64.64.64h1.6c.36 0 .64-.29.64-.64V50.76c0-4.26-2.78-6.97-7.47-6.97-4.26 0-6.75 1.98-7.72 5.09M270.57 43.8c-4.84 0-7.87 2.13-7.87 5.67 0 .14 0 .3.01.47.02.34.3.61.64.61h1.4c.36 0 .64-.29.64-.65 0-2.42 1.8-3.65 5.09-3.65 3.64 0 5.45 1.48 5.45 4.55v1.3h-7.26c-4.77 0-6.53 2.17-6.53 4.69 0 3.36 2.56 5.41 6.61 5.41 4.44 0 6.68-1.77 7.29-4.51h.04c-.03 1.35-.08 2.65-.12 3.55-.01.37.28.67.64.67h1.57c.36 0 .64-.29.64-.64V51.05c0-4.66-3.03-7.26-8.27-7.26m5.38 10.65c0 3.25-2.56 5.31-6.61 5.31-2.82 0-4.48-1.15-4.48-2.96s1.16-2.6 4.08-2.6h7v.25zM128.09 91.17V71.5c0-.38.31-.69.69-.69h6.49c.38 0 .69-.31.69-.69v-1.33c0-.38-.31-.69-.69-.69h-17.4c-.38 0-.69.31-.69.69v1.33c0 .38.31.69.69.69h6.5c.38 0 .69.31.69.69v19.67c0 .38.31.69.69.69h1.66c.38 0 .69-.31.69-.69M154.27 81.32v9.85c0 .38.31.68.69.68h1.51c.38 0 .69-.31.69-.68V80.7c0-4.26-2.78-6.97-7.47-6.97-4.26 0-6.75 2.02-7.72 5.12h-.04c0-.65.07-2.78.07-3.75v-7.58c0-.38-.31-.69-.69-.69h-1.52c-.38 0-.69.31-.69.69v23.64c0 .38.31.68.69.68h1.52c.38 0 .69-.31.69-.68v-7.72c0-4.51 2.63-7.11 6.71-7.11 3.83 0 5.56 1.95 5.56 4.98M177.14 85.83h-1.38c-.31 0-.57.21-.64.51-.48 2.05-2.45 3.35-5.22 3.35-3.5 0-5.81-2.38-5.99-6.17h13.31c.36 0 .66-.3.66-.66v-.67c0-5.31-3-8.45-8.08-8.45-5.34 0-8.77 3.65-8.77 9.35s3.46 9.06 8.84 9.06c4.38 0 7.41-2.14 7.94-5.57a.66.66 0 00-.66-.75m-7.28-9.64c3.39 0 5.34 1.88 5.34 5.02v.22h-11.19c.54-3.39 2.67-5.23 5.85-5.23M211.55 80.45h-10c-.38 0-.69.31-.69.69v.87c0 .38.31.69.69.69h7.65v.69c0 3.57-2.92 6.24-7.65 6.24s-8.74-3.64-8.74-9.38 3.9-9.75 8.92-9.75c4.29 0 7.47 2.24 7.47 6.03v.57c0 .38.31.7.69.7h1.44c.37 0 .68-.3.69-.67v-.74c0-5.41-4.3-8.63-10.29-8.63-6.75 0-11.95 5.02-11.95 12.45s5.02 12.02 11.77 12.02c4.73 0 7.36-2.06 8.09-4.77h.03c-.06 1.35-.13 2.68-.22 3.66-.03.4.28.74.68.74h1.41c.38 0 .68-.31.68-.69V81.14a.69.69 0 00-.68-.69M231.95 83.88c.36 0 .65-.27.68-.63.06-.69.12-1.64.12-2.55 0-4.29-2.13-6.97-6.14-6.97s-5.67 2.35-6.5 5.45h-.04l.06-4.47c0-.38-.3-.7-.69-.7h-1.51c-.38 0-.68.31-.68.69v16.46c0 .38.31.68.68.68h1.52c.38 0 .68-.3.68-.68v-7.22c0-4.44 2.13-7.62 5.78-7.62 2.92 0 4.15 1.7 4.15 4.98 0 .71-.03 1.33-.07 1.83-.03.4.28.74.68.74h1.25zM252.81 82.19c0-5.31-3-8.45-8.08-8.45-5.34 0-8.77 3.65-8.77 9.35s3.46 9.06 8.84 9.06c4.37 0 7.39-2.13 7.93-5.54.07-.41-.27-.78-.68-.78h-1.34c-.32 0-.59.22-.66.53-.49 2.04-2.45 3.33-5.21 3.33-3.5 0-5.81-2.38-5.99-6.17h13.28c.38 0 .68-.31.68-.68v-.65zm-2.67-.76h-11.19c.54-3.39 2.67-5.23 5.85-5.23 3.39 0 5.34 1.88 5.34 5.02v.22zM264.95 92.15c4.37 0 7.39-2.13 7.93-5.54.07-.41-.27-.78-.68-.78h-1.34c-.32 0-.59.22-.66.53-.49 2.04-2.45 3.33-5.22 3.33-3.5 0-5.81-2.38-5.99-6.17h13.28c.38 0 .69-.31.69-.69v-.65c0-5.31-3-8.45-8.08-8.45-5.34 0-8.77 3.65-8.77 9.35s3.46 9.06 8.84 9.06m0-15.95c3.39 0 5.34 1.88 5.34 5.02v.22H259.1c.54-3.39 2.67-5.23 5.85-5.23M287.7 73.74c-4.26 0-6.75 1.99-7.73 5.09h-.04l.06-4.1c0-.38-.3-.7-.69-.7h-1.51a.68.68 0 00-.68.68v16.46c0 .38.31.68.68.68h1.52c.38 0 .69-.31.69-.68v-8.09c0-4.26 2.64-6.75 6.71-6.75 3.83 0 5.56 1.95 5.56 4.98v9.85c0 .38.31.68.68.68h1.52c.38 0 .69-.31.69-.68V80.69c0-4.26-2.78-6.97-7.47-6.97M313.56 83.16c-1.23-.68-2.6-.94-5.38-1.23-2.35-.25-4.11-.47-4.98-.83-1.05-.43-1.15-1.3-1.15-2.02 0-1.77 1.98-2.89 5.05-2.89s4.5 1.04 4.76 3.28c.04.35.33.61.68.61h1.32c.4 0 .72-.34.69-.74-.27-3.55-2.55-5.61-7.55-5.61s-7.83 2.17-7.83 5.52c0 1.3.51 2.6 1.48 3.32 1.08.79 2.85 1.15 5.77 1.41 2.2.22 4.08.43 4.91.83.9.43 1.12 1.12 1.12 1.84 0 1.91-1.77 3.03-5.45 3.03-3.38 0-4.88-1.16-5.13-3.17a.691.691 0 00-.68-.62h-1.31c-.4 0-.72.34-.69.74.26 3.09 2.28 5.51 7.84 5.51s8.3-2.09 8.3-5.59c0-1.34-.58-2.71-1.77-3.39M141.69 8.04h-4.57c-.33 0-.62.21-.72.52l-6.1 18.15h-.07l-6.24-18.16a.745.745 0 00-.72-.51H118c-.49 0-.83.49-.65.95l8.57 22.56c.11.29.4.49.71.49h6.39c.32 0 .6-.19.71-.49l8.6-22.56a.696.696 0 00-.65-.95M149.32 14.02h-4.02a.76.76 0 00-.76.76v16.49c0 .42.34.76.76.76h4.02c.42 0 .76-.34.76-.76V14.78a.76.76 0 00-.76-.76M165.76 13.73c-4.08 0-6.2 1.64-7.11 5.07h-.07c.11-1.35.22-3.39.22-4.08v-7.2a.76.76 0 00-.76-.76h-4.02a.76.76 0 00-.76.76v23.75c0 .42.34.76.76.76h4.02c.42 0 .76-.34.76-.76v-7.81c0-3.43 1.75-5.14 4.67-5.14 2.48 0 3.9 1.13 3.9 3.68v9.27c0 .42.34.76.76.76h4.02c.42 0 .76-.34.76-.76V20.76c0-4.67-2.81-7.04-7.15-7.04M187.56 13.73c-3.54 0-5.47 2.01-6.24 5.43h-.07l.18-4.35a.76.76 0 00-.76-.79h-3.99a.76.76 0 00-.76.76v16.49c0 .42.34.76.76.76h4.02c.42 0 .76-.34.76-.76v-7.01c0-4.01 1.64-5.94 4.01-5.94 1.75 0 2.81 1.06 2.81 3.68 0 .38-.02.93-.05 1.53-.03.44.32.81.76.81h3.51c.4 0 .73-.31.76-.7.06-.92.13-2.07.13-2.87 0-4.67-2.15-7.04-5.83-7.04M224.81 13.73c-5.47 0-8.68 2.15-8.68 5.8v.34c.02.4.36.72.76.72h3.61c.42 0 .76-.34.76-.76 0-1.46 1.2-2.34 3.28-2.34 2.55 0 3.79.87 3.79 3.06v1.2h-5.87c-4.78 0-6.89 2.15-6.89 5.1 0 3.65 2.92 5.47 7.11 5.47 3.28 0 5.32-1.38 5.87-3.94h.04c0 .81-.08 1.92-.17 2.82-.04.45.31.83.76.83h3.94c.42 0 .76-.34.76-.76V21.09c0-4.81-3.35-7.37-9.08-7.37m3.54 11.38c0 2.19-1.68 3.46-4.56 3.46-2.01 0-3.21-.73-3.21-2.11 0-1.02.91-1.71 2.41-1.71h5.36v.36zM243.45 18.32h5c.42 0 .76-.34.76-.76v-2.78a.76.76 0 00-.76-.76h-5V10.7a.76.76 0 00-.76-.76h-3.11a.76.76 0 00-.76.68l-.19 1.83c-.11 1.09-.4 1.57-1.24 1.57H236a.76.76 0 00-.76.76v2.78c0 .42.34.76.76.76h1.9v7.51c0 4.01 2.01 6.49 7.62 6.49 1.08 0 2.17-.15 2.88-.28.36-.06.63-.38.63-.75v-2.67a.76.76 0 00-.86-.75c-.55.07-1.17.11-1.65.11-2.19 0-3.06-.58-3.06-2.44v-7.22M147.31 6.66c-1.78 0-3.22 1.44-3.22 3.22s1.44 3.22 3.22 3.22 3.22-1.44 3.22-3.22-1.44-3.22-3.22-3.22M221.13 12.85a2.97 2.97 0 100-5.94 2.97 2.97 0 000 5.94M228.56 12.85a2.97 2.97 0 000-5.94c-1.64 0-2.98 1.33-2.98 2.97s1.33 2.97 2.98 2.97M204.93 13.73c-6.09 0-9.81 3.54-9.81 9.48s3.72 9.12 9.7 9.12c4.78 0 8.08-2.08 8.61-5.68.07-.45-.3-.85-.76-.85h-3.4c-.34 0-.66.22-.75.55-.37 1.36-1.68 1.97-3.59 1.97-2.48 0-3.98-1.28-4.23-4.23h12.04c.42 0 .76-.34.76-.76v-.81c0-5.91-3.54-8.79-8.57-8.79m3.68 7.4h-7.77c.44-2.37 1.75-3.39 4.08-3.39s3.68 1.06 3.68 3.1v.29zM49.25 0C22.05 0 0 22.05 0 49.25S22.05 98.5 49.25 98.5 98.5 76.45 98.5 49.25 76.46 0 49.25 0M26.46 22.62c-1.02 1.47-1.36 2.34-2.72 4.03-.08.1-.99 1.02-2.16 1.83-2.04 1.41-4.43 1.84-6.79 2.38-1.93.45-4.79 1.75-5.04-1.47-.1-1.27.64-2.42 1.18-3.58C16.65 13.52 28.46 5.37 42.74 4.67c.85-.04 1.76-.22 2.51.19.61.33.83.68.85 1.05.02.7-.71 1.44-1.04 2.12-.64 1.32-.43 2.63-1.42 3.87-1.36 1.69-1.33 3.01.03 4.47 1.06 1.15 1.11 2.59.59 3.89-.44 1.09-1.34 1.94-2.35 2.5-1.69.92-3.4 1.25-5.28 1.98-2.21.85-4.38 1.54-5.51.86-.88-.53-.5-1.87.35-2.8.46-.51 1.55-1.62 2.6-3.04.95-1.29.98-2.61.03-3.08-1.37-.69-5.18 1.46-7.64 5.96m9.12 26.74c.23-.19.44-.36.62-.55.49-.49.52-1.07.56-1.8 0-.13.02-.26.03-.4.08-.98.77-1.7 1.68-1.76.46-.03.9.13 1.25.44.22.2.4.45.53.75.28.65.37 1.51.28 2.55-.08.9-.4 1.76-.92 2.47-.87 1.19-2.29 2.01-3.62 2.08h-.07c-.36.02-1.03-.02-1.47-.45-.25-.25-.38-.58-.38-.97.02-1.16.8-1.8 1.49-2.37m-1.93-.13c-.15.05-.31.07-.45.08-.45.03-.85-.12-1.16-.43-.22-.22-.3-.57-.21-.91.19-.73.81-1.41 1.4-1.97.37-.35.76-.55 1.14-.57.3-.02.57.08.79.27.29.26.45.67.48 1.2.05.98-1.01 2.04-1.99 2.33m5.15-20.02c-1.23 1.32-4.26 1.11-4.47-1.03-.14-1.38 2.1-2.1 3.15-2.09.63 0 1.29.25 1.66.75.03.04.06.09.09.14.4.7.14 1.64-.42 2.23M91.7 51.41c-.81.58-1.85.73-2.6 1.41-1.18 1.06-1.72 2.62-3.05 3.58-3.18 2.3-5.75 2.06-6.69 4.25-.57 1.34-.15 2.31-.26 4.35-.12 2.27-1.02 4.13-2.88 5.52-2.07 1.55-3.49 1.59-4.06 2.74-.62 1.24-.19 1.9-.08 3.69.08 1.3-.37 2.37-1.02 3.18-1.96 2.47-3.08 3.07-4.15 5.25-1.59 3.26-4.35 5.99-7.03 8.47-1.11 1.03-2.39 2.07-3.91 2.11-1.76.05-3.27-1.3-4.22-2.78-1.69-2.67-2.26-5.67-5.05-7.51-1.81-1.2-4.22-2.09-7.03-3.12-2.67-.97-4.72-1.49-6.74-3.47-1.05-1.03-1.53-1.9-1.68-2.19-1.57-3.01-.67-6.12-.52-6.62.12-.39 1.1-3.43 4.18-5.23 2.44-1.43 4.86-1.29 6.88-1.15.69.05 1.26.13 1.8.24.98.2 1.74.42 2.38.64 1.71.59 2.81 1.11 3.6 1.45.67.29 5.78 2.24 10.24.99 2.66-.74 4.73-2.82 4.36-4.74-.33-1.69-1.21-2.42-4.57-2.42-5.32 0-7.58-2.65-9.13-1.41-1.17.93.32 2.71-.42 3.47-.42.43-1.01.4-1.15.38-1.22-.14-2.29-1.35-3.38-2.59-.97-1.1-2.44-1.52-4.03-1.1-.94.25-1.73.94-2.34 1.98-.77 1.31-2.53 3.11-4.65 2.71-2.4-.45-2.88-3.18-2.06-4.82.69-1.37 2.19-2.07 3.52-2.67 1.42-.64 2.73-1.1 3.59-2.44 4.11-6.41 6.27-7.94 9.86-7.84 1.43.04 2.9.1 4.3-.22.79-.18 1.67-.51 2.28-1.07.77-.72.98-1.77-.06-2.24-.83-.38-1.65.22-2.49.27-1.58.1-3.15-.88-3.23-2.57-.09-1.8 1.49-3.19 1.49-4.95 0-1.57-1.51-1.76-2.4-.65-1.09 1.35-1.43 3.18-1.21 4.87.29 2.19-1.4 5.34-4.21 5.04-1.8-.19-4.17-1.41-4.33-3.96-.2-3.27 2.42-4.35 4.62-8.06 2.76-4.67 6.02-6.23 9.17-6.43 4.47-.27 4.23 4.45 7.42 3.35 3.27-1.12 4.35-5.1 3.87-12.99-.22-3.66 2.78-4.97 6.01-4.64 3.03.31 5.62 1.3 8.09 3.01 3.38 2.34 4.97 4.23 7.13 6.85a32.9 32.9 0 013.83 5.73c2.12 4 4.13 7.76 4.21 12.3.06 3 .1 5.19-.43 8.13-.22 1.2-.71 3.17-1.78 3.93"/></g></svg>