<svg width="744" height="90" viewBox="0 0 744 90" fill="none" xmlns="http://www.w3.org/2000/svg">
<g clip-path="url(#clip0_951_3)">
<path d="M23.821 3.34399V62.992C23.821 65.04 24.589 65.936 26.637 65.936H59.533C61.581 65.936 62.349 66.832 62.349 68.88V87.056C62.349 89.104 61.581 90 59.533 90H3.341C1.293 90 0.525 89.104 0.525 87.056V3.34399C0.525 1.296 1.293 0.399994 3.341 0.399994H21.005C23.053 0.399994 23.821 1.296 23.821 3.34399ZM91.734 91.28C77.398 91.28 68.054 82.32 68.054 69.52C68.054 56.72 77.782 47.76 91.99 47.76C96.47 47.76 100.694 48.912 103.638 50.448C104.662 50.96 105.686 51.472 106.326 51.472C107.094 51.472 107.35 50.704 107.35 49.808C107.35 46.608 102.358 43.664 94.294 43.664C88.662 43.664 84.694 44.56 80.982 45.584C79.574 45.968 77.782 46.096 77.27 44.048L73.942 31.12C73.43 29.2 73.942 27.92 75.862 27.536C81.75 26.128 88.918 24.72 98.262 24.72C118.23 24.72 128.47 33.424 128.47 54.544V87.184C128.47 89.232 127.702 90 125.654 90H114.134C111.574 90 110.422 89.744 109.654 88.336C109.142 87.44 108.63 86.928 107.734 86.928C106.71 86.928 105.814 87.568 103.638 88.592C101.206 89.872 96.854 91.28 91.734 91.28ZM98.39 75.28C103.894 75.28 107.222 72.976 107.222 69.52C107.222 66.064 103.894 63.76 98.39 63.76C92.886 63.76 89.558 66.064 89.558 69.52C89.558 72.976 92.886 75.28 98.39 75.28ZM159.496 91.28C145.8 91.28 137.48 84.112 137.48 66.064V28.944C137.48 26.896 138.248 26 140.296 26H156.04C158.088 26 158.856 26.896 158.856 28.944V58.128C158.856 63.76 159.88 69.136 165.768 69.136C171.272 69.136 173.064 64.272 173.064 58.128V28.944C173.064 26.896 173.832 26 175.88 26H191.624C193.672 26 194.44 26.896 194.44 28.944V87.056C194.44 89.104 193.672 90 191.624 90H179.72C177.544 90 176.392 90 175.496 88.592C174.856 87.568 174.344 86.928 173.448 86.928C172.424 86.928 170.504 88.08 169.736 88.464C166.92 90 162.952 91.28 159.496 91.28ZM254.394 54.416H238.394C236.602 54.416 235.834 53.392 235.834 51.856C235.834 48.784 234.426 47.248 231.994 47.248C229.05 47.248 227.386 49.296 227.386 54.16V87.056C227.386 89.104 226.618 90 224.57 90H208.826C206.778 90 206.01 89.104 206.01 87.056V28.944C206.01 26.896 206.778 26 208.826 26H221.114C223.29 26 224.186 26.256 225.21 27.792C225.594 28.432 226.106 29.072 227.002 29.072C227.642 29.072 228.282 28.816 229.562 28.176C233.018 26.384 236.986 24.72 240.314 24.72C250.81 24.72 257.21 31.76 257.21 46.48V51.472C257.21 53.52 256.442 54.416 254.394 54.416ZM264.01 87.056V28.944C264.01 26.896 264.778 26 266.826 26H282.57C284.618 26 285.386 26.896 285.386 28.944V87.056C285.386 89.104 284.618 90 282.57 90H266.826C264.778 90 264.01 89.104 264.01 87.056ZM264.01 16.144V3.34399C264.01 1.296 264.778 0.399994 266.826 0.399994H282.57C284.618 0.399994 285.386 1.296 285.386 3.34399V16.144C285.386 18.192 284.618 19.088 282.57 19.088H266.826C264.778 19.088 264.01 18.192 264.01 16.144ZM342.571 3.34399V62.992C342.571 65.04 343.339 65.936 345.387 65.936H378.283C380.331 65.936 381.099 66.832 381.099 68.88V87.056C381.099 89.104 380.331 90 378.283 90H322.091C320.043 90 319.275 89.104 319.275 87.056V3.34399C319.275 1.296 320.043 0.399994 322.091 0.399994H339.755C341.803 0.399994 342.571 1.296 342.571 3.34399ZM410.484 91.28C396.148 91.28 386.804 82.32 386.804 69.52C386.804 56.72 396.532 47.76 410.74 47.76C415.22 47.76 419.444 48.912 422.388 50.448C423.412 50.96 424.436 51.472 425.076 51.472C425.844 51.472 426.1 50.704 426.1 49.808C426.1 46.608 421.108 43.664 413.044 43.664C407.412 43.664 403.444 44.56 399.732 45.584C398.324 45.968 396.532 46.096 396.02 44.048L392.692 31.12C392.18 29.2 392.692 27.92 394.612 27.536C400.5 26.128 407.668 24.72 417.012 24.72C436.98 24.72 447.22 33.424 447.22 54.544V87.184C447.22 89.232 446.452 90 444.404 90H432.884C430.324 90 429.172 89.744 428.404 88.336C427.892 87.44 427.38 86.928 426.484 86.928C425.46 86.928 424.564 87.568 422.388 88.592C419.956 89.872 415.604 91.28 410.484 91.28ZM417.14 75.28C422.644 75.28 425.972 72.976 425.972 69.52C425.972 66.064 422.644 63.76 417.14 63.76C411.636 63.76 408.308 66.064 408.308 69.52C408.308 72.976 411.636 75.28 417.14 75.28ZM492.737 90H482.753C479.809 90 478.657 89.488 477.249 86.544L449.857 29.584C449.089 27.92 449.217 26 451.905 26H468.033C470.977 26 472.129 26.64 473.537 29.584L485.953 55.568C486.721 57.232 488.769 57.232 489.537 55.568L501.953 29.584C503.361 26.64 504.513 26 507.457 26H523.713C526.145 26 526.657 27.664 525.761 29.584L498.241 86.544C496.833 89.488 495.681 90 492.737 90ZM549.484 91.28C535.148 91.28 525.804 82.32 525.804 69.52C525.804 56.72 535.532 47.76 549.74 47.76C554.22 47.76 558.444 48.912 561.388 50.448C562.412 50.96 563.436 51.472 564.076 51.472C564.844 51.472 565.1 50.704 565.1 49.808C565.1 46.608 560.108 43.664 552.044 43.664C546.412 43.664 542.444 44.56 538.732 45.584C537.324 45.968 535.532 46.096 535.02 44.048L531.692 31.12C531.18 29.2 531.692 27.92 533.612 27.536C539.5 26.128 546.668 24.72 556.012 24.72C575.98 24.72 586.22 33.424 586.22 54.544V87.184C586.22 89.232 585.452 90 583.404 90H571.884C569.324 90 568.172 89.744 567.404 88.336C566.892 87.44 566.38 86.928 565.484 86.928C564.46 86.928 563.564 87.568 561.388 88.592C558.956 89.872 554.604 91.28 549.484 91.28ZM556.14 75.28C561.644 75.28 564.972 72.976 564.972 69.52C564.972 66.064 561.644 63.76 556.14 63.76C550.636 63.76 547.308 66.064 547.308 69.52C547.308 72.976 550.636 75.28 556.14 75.28ZM633.246 24.72C645.79 24.72 654.75 32.4 654.75 50.064V87.056C654.75 89.104 653.982 90 651.934 90H636.19C634.142 90 633.374 89.104 633.374 87.056V57.872C633.374 52.24 631.71 46.864 625.822 46.864C620.318 46.864 617.886 51.728 617.886 57.872V87.056C617.886 89.104 617.118 90 615.07 90H599.326C597.278 90 596.51 89.104 596.51 87.056V28.944C596.51 26.896 597.278 26 599.326 26H611.23C614.174 26 614.814 26.384 615.838 28.048C616.222 28.688 616.862 29.072 617.502 29.072C618.27 29.072 619.55 28.432 620.574 27.92C623.518 26.384 627.358 24.72 633.246 24.72ZM670.77 47.12H663.474C661.426 47.12 660.53 46.352 660.53 44.304V28.816C660.53 26.768 661.298 26 663.474 26H670.77C672.818 26 673.586 25.104 673.586 23.056V3.34399C673.586 1.296 674.354 0.399994 676.402 0.399994H692.146C694.194 0.399994 694.962 1.296 694.962 3.34399V23.056C694.962 25.104 695.73 26 697.778 26H712.37C714.418 26 715.314 26.768 715.314 28.816V44.304C715.314 46.352 714.418 47.12 712.37 47.12H697.778C695.73 47.12 694.962 48.016 694.962 50.064V87.056C694.962 89.104 694.194 90 692.146 90H676.402C674.354 90 673.586 89.104 673.586 87.056V50.064C673.586 48.016 672.818 47.12 670.77 47.12ZM721.885 87.056V28.944C721.885 26.896 722.653 26 724.701 26H740.445C742.493 26 743.261 26.896 743.261 28.944V87.056C743.261 89.104 742.493 90 740.445 90H724.701C722.653 90 721.885 89.104 721.885 87.056ZM721.885 16.144V3.34399C721.885 1.296 722.653 0.399994 724.701 0.399994H740.445C742.493 0.399994 743.261 1.296 743.261 3.34399V16.144C743.261 18.192 742.493 19.088 740.445 19.088H724.701C722.653 19.088 721.885 18.192 721.885 16.144Z" fill="#F8CFA9"/>
</g>
<defs>
<clipPath id="clip0_951_3">
<rect width="744" height="90" fill="white"/>
</clipPath>
</defs>
</svg>
